<svg xmlns="http://www.w3.org/2000/svg" xmlns:xlink="http://www.w3.org/1999/xlink" id="Layer_1" x="0px" y="0px" viewBox="0 0 775.6 234.3" style="enable-background:new 0 0 775.6 234.3;" xml:space="preserve"> <style type="text/css"> .st0{fill:#FE6400;} .st1{fill:#FF6204;} </style> <circle class="st0" cx="111.2" cy="36" r="19.6"></circle> <polygon points="33.5,234.3 117.2,150.6 133,166.5 160.5,166.5 130.9,136.9 117.2,123.2 103.4,136.9 6,234.3 "></polygon> <polygon points="0,33.5 83.7,117.2 67.9,133 67.9,160.5 97.4,130.9 111.2,117.2 97.4,103.4 0,6 "></polygon> <polygon points="234.3,200.9 150.6,117.2 166.5,101.3 166.5,73.9 136.9,103.4 123.2,117.2 136.9,130.9 234.3,228.3 "></polygon> <polygon class="st1" points="200.9,0 117.2,83.7 101.3,67.9 73.9,67.9 103.4,97.4 117.2,111.2 130.9,97.4 228.3,0 "></polygon> <g> <path d="M176.1,128.7V72.9h44.4c2.9,0,5.4,0.2,7.4,0.7c2,0.5,3.6,1.2,4.9,2.3c1.2,1.1,2.1,2.5,2.7,4.4c0.5,1.8,0.8,4.1,0.8,6.9v3.5 c0,5.3-2.5,8.4-7.4,9.2c2.4,0.3,4.5,1.3,6.2,2.9c1.7,1.6,2.5,4.1,2.5,7.5v3.6c0,2.9-0.3,5.3-1,7.2c-0.6,1.9-1.7,3.4-3,4.6 s-3.1,1.9-5.3,2.4c-2.2,0.5-4.7,0.7-7.7,0.7H176.1z M225.4,88.7c0-1.8-0.4-3-1.1-3.7c-0.7-0.7-2-1.1-3.8-1.1h-33.5V96h33.6 c1.7,0,3-0.4,3.7-1.2c0.7-0.8,1.1-2.1,1.1-4V88.7z M226.7,110.5c0-2.1-0.4-3.5-1.2-4.3c-0.8-0.8-2.3-1.3-4.6-1.3h-33.9v12.8h33.5 c2.4,0,4.1-0.4,4.9-1.2c0.8-0.8,1.3-2.1,1.3-4V110.5z"></path> <path d="M262.9,128.7c-5.3,0-9.4-1.2-12.4-3.6c-2.9-2.4-4.4-6.3-4.4-11.8v-13c0-5.5,1.5-9.4,4.4-11.8c2.9-2.4,7.1-3.6,12.4-3.6 h14.5c5.3,0,9.4,1.2,12.4,3.6c3,2.4,4.5,6.3,4.5,11.8v10.3h-37.4v2.7c0,2.3,0.5,3.8,1.6,4.7c1.1,0.9,2.5,1.3,4.4,1.3h30.5l-1.4,9.4 H262.9z M283.4,100.9c0-2.4-0.5-4.1-1.4-5.1c-0.9-1-2.5-1.5-4.6-1.5h-14.5c-2.2,0-3.7,0.5-4.6,1.5c-0.9,1-1.4,2.5-1.4,4.5v3.5h26.5 V100.9z"></path> <path d="M326.4,128.2c-0.5,0.3-1.4,0.6-2.6,0.9c-1.2,0.3-2.4,0.4-3.9,0.4c-5.5,0-9.5-1.8-11.8-5.3c-2.4-3.5-3.6-8.8-3.6-15.8V92.9 h-4.9l1.3-8h3.6v-9.7l10.9-3.6v13.3h9.1l-1.3,8h-7.8v15.5c0,3.9,0.6,6.8,1.8,8.7c1.2,1.9,3.2,2.9,5.9,2.9c2.2,0,3.8-0.4,4.9-1.1 L326.4,128.2z"></path> <path d="M350.8,128.7c-5.9,0-10.2-1.2-12.8-3.6c-2.6-2.4-4-6.3-4-11.8v-13c0-5.5,1.3-9.4,4-11.8c2.6-2.4,6.9-3.6,12.8-3.6h14.5 c5.9,0,10.2,1.2,12.9,3.6c2.6,2.4,4,6.3,4,11.8v13c0,5.5-1.3,9.4-4,11.8c-2.6,2.4-6.9,3.6-12.9,3.6H350.8z M371.3,100.3 c0-2.3-0.5-3.8-1.5-4.7c-1-0.9-2.5-1.3-4.5-1.3h-14.5c-2.1,0-3.6,0.4-4.5,1.3c-1,0.9-1.5,2.4-1.5,4.7v13c0,2.3,0.5,3.8,1.5,4.7 c1,0.9,2.5,1.3,4.5,1.3h14.5c2.1,0,3.6-0.4,4.5-1.3c1-0.9,1.5-2.4,1.5-4.7V100.3z"></path> <path d="M428.2,128.7V101c0-2.3-0.4-4-1.3-5.1c-0.9-1.1-2.4-1.7-4.7-1.7h-14.1c-1.6,0-2.8,0.3-3.6,1c-0.8,0.7-1.4,1.7-1.9,3.2v30.2 h-10.8V84.9h10.4v6.3c1.2-2.3,2.6-4,4.1-4.9c1.6-0.9,3.6-1.4,6.2-1.4h9.6c3.2,0,5.9,0.4,8,1.1c2.2,0.7,3.9,1.8,5.2,3.2 c1.3,1.5,2.2,3.3,2.8,5.5c0.6,2.2,0.9,4.8,0.9,7.7v26.3H428.2z"></path> <path d="M531.3,112.5c0,3-0.3,5.5-1,7.5c-0.6,2.1-1.7,3.7-3.1,5c-1.4,1.3-3.3,2.2-5.6,2.8c-2.3,0.6-5.1,0.9-8.4,0.9h-39.4 c0.1-1.8,0.2-3.7,0.4-5.5c0.1-1.8,0.3-3.6,0.4-5.5h38c1.5,0,2.7-0.1,3.7-0.3c1-0.2,1.8-0.5,2.4-1c0.6-0.5,1-1.1,1.2-1.9 c0.2-0.8,0.4-1.8,0.4-3c0-2.3-0.5-3.9-1.5-4.8c-1-0.9-3-1.3-5.8-1.3H490c-3.4,0-6.2-0.3-8.4-0.9c-2.2-0.6-4.1-1.5-5.4-2.8 c-1.4-1.2-2.4-2.8-3-4.7c-0.6-1.9-0.9-4.1-0.9-6.6v-1.9c0-2.8,0.3-5.1,0.9-7.1c0.6-2,1.6-3.6,3-4.9c1.4-1.2,3.3-2.2,5.6-2.8 c2.3-0.6,5.1-0.9,8.6-0.9h39.1c-0.2,1.9-0.4,3.7-0.6,5.6c-0.2,1.8-0.5,3.7-0.7,5.6h-37.7c-2.7,0-4.5,0.5-5.5,1.4 c-0.9,0.9-1.4,2.5-1.4,4.7c0,2.2,0.5,3.8,1.4,4.7c0.9,0.9,2.8,1.4,5.5,1.4h22.3c3.5,0,6.4,0.3,8.8,0.9c2.4,0.6,4.3,1.4,5.8,2.6 c1.5,1.2,2.5,2.7,3.2,4.5c0.6,1.8,1,3.9,1,6.4V112.5z"></path> <path d="M562.2,128.2c-0.5,0.3-1.4,0.6-2.6,0.9c-1.2,0.3-2.4,0.4-3.9,0.4c-5.5,0-9.5-1.8-11.8-5.3c-2.4-3.5-3.6-8.8-3.6-15.8V92.9 h-4.9l1.3-8h3.6v-9.7l10.9-3.6v13.3h9.1l-1.3,8h-7.8v15.5c0,3.9,0.6,6.8,1.8,8.7c1.2,1.9,3.2,2.9,5.9,2.9c2.2,0,3.8-0.4,4.9-1.1 L562.2,128.2z"></path> <path d="M570.2,81.1V69.5h10.9v11.6H570.2z M570.2,128.7V84.9h10.9v43.8H570.2z"></path> <path d="M591.2,128.7V71.4l10.8-3.6v60.9H591.2z"></path> <path d="M694.4,112.5c0,3-0.3,5.5-1,7.5c-0.6,2.1-1.7,3.7-3.1,5c-1.4,1.3-3.3,2.2-5.6,2.8c-2.3,0.6-5.1,0.9-8.4,0.9h-39.4 c0.1-1.8,0.2-3.7,0.4-5.5c0.1-1.8,0.3-3.6,0.4-5.5h38c1.5,0,2.7-0.1,3.7-0.3c1-0.2,1.8-0.5,2.4-1c0.6-0.5,1-1.1,1.2-1.9 c0.2-0.8,0.4-1.8,0.4-3c0-2.3-0.5-3.9-1.5-4.8c-1-0.9-3-1.3-5.8-1.3h-22.6c-3.4,0-6.2-0.3-8.4-0.9c-2.2-0.6-4.1-1.5-5.4-2.8 c-1.4-1.2-2.4-2.8-3-4.7c-0.6-1.9-0.9-4.1-0.9-6.6v-1.9c0-2.8,0.3-5.1,0.9-7.1c0.6-2,1.6-3.6,3-4.9c1.4-1.2,3.3-2.2,5.6-2.8 c2.3-0.6,5.2-0.9,8.6-0.9h39.1c-0.2,1.9-0.4,3.7-0.6,5.6c-0.2,1.8-0.5,3.7-0.7,5.6h-37.7c-2.7,0-4.5,0.5-5.5,1.4 c-0.9,0.9-1.4,2.5-1.4,4.7c0,2.2,0.5,3.8,1.4,4.7c0.9,0.9,2.8,1.4,5.5,1.4h22.3c3.5,0,6.4,0.3,8.8,0.9c2.4,0.6,4.3,1.4,5.8,2.6 c1.5,1.2,2.5,2.7,3.2,4.5c0.6,1.8,1,3.9,1,6.4V112.5z"></path> <path d="M702.5,128.7V72.9h47c3.4,0,6.2,0.3,8.5,0.9c2.2,0.6,4,1.6,5.4,3c1.3,1.4,2.3,3.3,2.8,5.6c0.6,2.3,0.9,5.1,0.9,8.6v19.6 c0,3.4-0.3,6.3-0.9,8.6c-0.6,2.3-1.5,4.2-2.8,5.6c-1.3,1.4-3.1,2.4-5.4,3c-2.2,0.6-5.1,0.9-8.5,0.9H702.5z M756,91.1 c0-2.8-0.5-4.6-1.5-5.6c-1-1-2.7-1.5-5.1-1.5h-35.9v33.8h35.9c2.5,0,4.2-0.5,5.1-1.5c0.9-1,1.4-2.8,1.4-5.6V91.1z"></path> </g> </svg>